<svg xmlns="http://www.w3.org/2000/svg" width="23" height="20" viewBox="0 0 23 20" fill="none">
<path d="M19.2778 1H3.72222C3.13285 1 2.56762 1.22684 2.15087 1.63062C1.73413 2.03439 1.5 2.58203 1.5 3.15306V13.9184C1.5 14.4894 1.73413 15.037 2.15087 15.4408C2.56762 15.8446 3.13285 16.0714 3.72222 16.0714H7.26444C8.37556 16.0714 9.27778 16.9445 9.27778 18.0221C9.27778 18.8919 10.3622 19.3269 10.9967 18.7122L13.0711 16.7023C13.4878 16.2985 14.0529 16.0716 14.6422 16.0714H19.2778C19.8671 16.0714 20.4324 15.8446 20.8491 15.4408C21.2659 15.037 21.5 14.4894 21.5 13.9184V3.15306C21.5 2.58203 21.2659 2.03439 20.8491 1.63062C20.4324 1.22684 19.8671 1 19.2778 1Z" stroke="black" stroke-width="1.5" stroke-linecap="round" stroke-linejoin="round"/>
</svg>