<svg width="1200" height="180" viewBox="0 0 1200 180" fill="none" xmlns="http://www.w3.org/2000/svg">
<rect x="0.5" y="0.5" width="1199" height="179" rx="11.5" fill="white" stroke="black"/>
<path d="M496.738 103.86V108H477.543V103.86H496.738ZM478.545 69.6094V108H473.456V69.6094H478.545ZM500.535 94.0518V93.4453C500.535 91.3887 500.834 89.4814 501.432 87.7236C502.029 85.9482 502.891 84.4102 504.016 83.1094C505.141 81.791 506.503 80.7715 508.103 80.0508C509.702 79.3125 511.495 78.9434 513.481 78.9434C515.485 78.9434 517.287 79.3125 518.887 80.0508C520.504 80.7715 521.875 81.791 523 83.1094C524.143 84.4102 525.013 85.9482 525.61 87.7236C526.208 89.4814 526.507 91.3887 526.507 93.4453V94.0518C526.507 96.1084 526.208 98.0156 525.61 99.7734C525.013 101.531 524.143 103.069 523 104.388C521.875 105.688 520.513 106.708 518.913 107.446C517.331 108.167 515.538 108.527 513.534 108.527C511.53 108.527 509.729 108.167 508.129 107.446C506.529 106.708 505.158 105.688 504.016 104.388C502.891 103.069 502.029 101.531 501.432 99.7734C500.834 98.0156 500.535 96.1084 500.535 94.0518ZM505.413 93.4453V94.0518C505.413 95.4756 505.58 96.8203 505.914 98.0859C506.248 99.334 506.749 100.441 507.417 101.408C508.103 102.375 508.955 103.14 509.975 103.702C510.994 104.247 512.181 104.52 513.534 104.52C514.87 104.52 516.039 104.247 517.041 103.702C518.061 103.14 518.904 102.375 519.572 101.408C520.24 100.441 520.741 99.334 521.075 98.0859C521.427 96.8203 521.603 95.4756 521.603 94.0518V93.4453C521.603 92.0391 521.427 90.7119 521.075 89.4639C520.741 88.1982 520.231 87.082 519.546 86.1152C518.878 85.1309 518.034 84.3574 517.015 83.7949C516.013 83.2324 514.835 82.9512 513.481 82.9512C512.146 82.9512 510.968 83.2324 509.948 83.7949C508.946 84.3574 508.103 85.1309 507.417 86.1152C506.749 87.082 506.248 88.1982 505.914 89.4639C505.58 90.7119 505.413 92.0391 505.413 93.4453ZM551.107 79.4707H555.537V107.394C555.537 109.907 555.027 112.052 554.008 113.827C552.988 115.603 551.564 116.947 549.736 117.861C547.926 118.793 545.834 119.259 543.461 119.259C542.477 119.259 541.316 119.101 539.98 118.784C538.662 118.485 537.361 117.967 536.078 117.229C534.812 116.508 533.749 115.532 532.888 114.302L535.445 111.401C536.641 112.843 537.889 113.845 539.189 114.407C540.508 114.97 541.809 115.251 543.092 115.251C544.639 115.251 545.975 114.961 547.1 114.381C548.225 113.801 549.095 112.939 549.71 111.797C550.343 110.672 550.659 109.283 550.659 107.631V85.7461L551.107 79.4707ZM531.464 94.0518V93.498C531.464 91.3184 531.719 89.3408 532.229 87.5654C532.756 85.7725 533.503 84.2344 534.47 82.9512C535.454 81.668 536.641 80.6836 538.029 79.998C539.418 79.2949 540.982 78.9434 542.723 78.9434C544.516 78.9434 546.08 79.2598 547.416 79.8926C548.77 80.5078 549.912 81.4131 550.844 82.6084C551.793 83.7861 552.54 85.21 553.085 86.8799C553.63 88.5498 554.008 90.4395 554.219 92.5488V94.9746C554.025 97.0664 553.647 98.9473 553.085 100.617C552.54 102.287 551.793 103.711 550.844 104.889C549.912 106.066 548.77 106.972 547.416 107.604C546.062 108.22 544.48 108.527 542.67 108.527C540.965 108.527 539.418 108.167 538.029 107.446C536.658 106.726 535.48 105.715 534.496 104.414C533.512 103.113 532.756 101.584 532.229 99.8262C531.719 98.0508 531.464 96.126 531.464 94.0518ZM536.342 93.498V94.0518C536.342 95.4756 536.482 96.8115 536.764 98.0596C537.062 99.3076 537.511 100.406 538.108 101.355C538.724 102.305 539.506 103.052 540.455 103.597C541.404 104.124 542.538 104.388 543.856 104.388C545.474 104.388 546.81 104.045 547.864 103.359C548.919 102.674 549.754 101.769 550.369 100.644C551.002 99.5186 551.494 98.2969 551.846 96.9785V90.624C551.652 89.6572 551.354 88.7256 550.949 87.8291C550.562 86.915 550.053 86.1064 549.42 85.4033C548.805 84.6826 548.04 84.1113 547.126 83.6895C546.212 83.2676 545.14 83.0566 543.909 83.0566C542.573 83.0566 541.422 83.3379 540.455 83.9004C539.506 84.4453 538.724 85.2012 538.108 86.168C537.511 87.1172 537.062 88.2246 536.764 89.4902C536.482 90.7383 536.342 92.0742 536.342 93.498ZM568.246 79.4707V108H563.342V79.4707H568.246ZM562.973 71.9033C562.973 71.1123 563.21 70.4443 563.685 69.8994C564.177 69.3545 564.897 69.082 565.847 69.082C566.778 69.082 567.49 69.3545 567.982 69.8994C568.492 70.4443 568.747 71.1123 568.747 71.9033C568.747 72.6592 568.492 73.3096 567.982 73.8545C567.49 74.3818 566.778 74.6455 565.847 74.6455C564.897 74.6455 564.177 74.3818 563.685 73.8545C563.21 73.3096 562.973 72.6592 562.973 71.9033ZM580.955 85.5615V108H576.077V79.4707H580.691L580.955 85.5615ZM579.795 92.6543L577.765 92.5752C577.782 90.624 578.072 88.8223 578.635 87.1699C579.197 85.5 579.988 84.0498 581.008 82.8193C582.027 81.5889 583.24 80.6396 584.646 79.9717C586.07 79.2861 587.644 78.9434 589.366 78.9434C590.772 78.9434 592.038 79.1367 593.163 79.5234C594.288 79.8926 595.246 80.4902 596.037 81.3164C596.846 82.1426 597.461 83.2148 597.883 84.5332C598.305 85.834 598.516 87.4248 598.516 89.3057V108H593.611V89.2529C593.611 87.7588 593.392 86.5635 592.952 85.667C592.513 84.7529 591.871 84.0938 591.027 83.6895C590.184 83.2676 589.146 83.0566 587.916 83.0566C586.703 83.0566 585.596 83.3115 584.594 83.8213C583.609 84.3311 582.757 85.0342 582.036 85.9307C581.333 86.8271 580.779 87.8555 580.375 89.0156C579.988 90.1582 579.795 91.3711 579.795 92.6543ZM626.544 102.938L633.874 79.4707H637.091L636.458 84.1377L628.996 108H625.858L626.544 102.938ZM621.613 79.4707L627.862 103.201L628.311 108H625.015L616.735 79.4707H621.613ZM644.104 103.017L650.063 79.4707H654.915L646.636 108H643.366L644.104 103.017ZM637.803 79.4707L644.975 102.542L645.792 108H642.681L635.008 84.085L634.375 79.4707H637.803ZM665.225 79.4707V108H660.32V79.4707H665.225ZM659.951 71.9033C659.951 71.1123 660.188 70.4443 660.663 69.8994C661.155 69.3545 661.876 69.082 662.825 69.082C663.757 69.082 664.469 69.3545 664.961 69.8994C665.471 70.4443 665.726 71.1123 665.726 71.9033C665.726 72.6592 665.471 73.3096 664.961 73.8545C664.469 74.3818 663.757 74.6455 662.825 74.6455C661.876 74.6455 661.155 74.3818 660.663 73.8545C660.188 73.3096 659.951 72.6592 659.951 71.9033ZM685 79.4707V83.2148H669.575V79.4707H685ZM674.796 72.5361H679.674V100.934C679.674 101.9 679.823 102.63 680.122 103.122C680.421 103.614 680.808 103.939 681.282 104.098C681.757 104.256 682.267 104.335 682.812 104.335C683.216 104.335 683.638 104.3 684.077 104.229C684.534 104.142 684.877 104.071 685.105 104.019L685.132 108C684.745 108.123 684.235 108.237 683.603 108.343C682.987 108.466 682.24 108.527 681.361 108.527C680.166 108.527 679.067 108.29 678.065 107.815C677.063 107.341 676.264 106.55 675.666 105.442C675.086 104.317 674.796 102.806 674.796 100.907V72.5361ZM695.6 67.5V108H690.722V67.5H695.6ZM694.439 92.6543L692.409 92.5752C692.427 90.624 692.717 88.8223 693.279 87.1699C693.842 85.5 694.633 84.0498 695.652 82.8193C696.672 81.5889 697.885 80.6396 699.291 79.9717C700.715 79.2861 702.288 78.9434 704.011 78.9434C705.417 78.9434 706.683 79.1367 707.808 79.5234C708.933 79.8926 709.891 80.4902 710.682 81.3164C711.49 82.1426 712.105 83.2148 712.527 84.5332C712.949 85.834 713.16 87.4248 713.16 89.3057V108H708.256V89.2529C708.256 87.7588 708.036 86.5635 707.597 85.667C707.157 84.7529 706.516 84.0938 705.672 83.6895C704.828 83.2676 703.791 83.0566 702.561 83.0566C701.348 83.0566 700.24 83.3115 699.238 83.8213C698.254 84.3311 697.401 85.0342 696.681 85.9307C695.978 86.8271 695.424 87.8555 695.02 89.0156C694.633 90.1582 694.439 91.3711 694.439 92.6543ZM762.968 88.8838V102.938C762.493 103.641 761.737 104.432 760.7 105.311C759.663 106.172 758.23 106.928 756.402 107.578C754.592 108.211 752.254 108.527 749.389 108.527C747.051 108.527 744.897 108.123 742.929 107.314C740.978 106.488 739.281 105.293 737.84 103.729C736.416 102.146 735.309 100.23 734.518 97.9805C733.744 95.7129 733.357 93.1465 733.357 90.2812V87.3018C733.357 84.4365 733.691 81.8789 734.359 79.6289C735.045 77.3789 736.047 75.4717 737.365 73.9072C738.684 72.3252 740.301 71.1299 742.217 70.3213C744.133 69.4951 746.33 69.082 748.809 69.082C751.744 69.082 754.196 69.5918 756.165 70.6113C758.151 71.6133 759.698 73.002 760.806 74.7773C761.931 76.5527 762.651 78.5742 762.968 80.8418H757.879C757.65 79.4531 757.193 78.1875 756.508 77.0449C755.84 75.9023 754.882 74.9883 753.634 74.3027C752.386 73.5996 750.777 73.248 748.809 73.248C747.033 73.248 745.495 73.5732 744.194 74.2236C742.894 74.874 741.821 75.8057 740.978 77.0186C740.134 78.2314 739.501 79.6992 739.079 81.4219C738.675 83.1445 738.473 85.0869 738.473 87.249V90.2812C738.473 92.4961 738.728 94.4736 739.237 96.2139C739.765 97.9541 740.512 99.4395 741.479 100.67C742.445 101.883 743.597 102.806 744.933 103.438C746.286 104.071 747.78 104.388 749.415 104.388C751.226 104.388 752.693 104.238 753.818 103.939C754.943 103.623 755.822 103.254 756.455 102.832C757.088 102.393 757.571 101.979 757.905 101.593V92.9971H749.02V88.8838H762.968ZM769.375 94.0518V93.4453C769.375 91.3887 769.674 89.4814 770.271 87.7236C770.869 85.9482 771.73 84.4102 772.855 83.1094C773.98 81.791 775.343 80.7715 776.942 80.0508C778.542 79.3125 780.335 78.9434 782.321 78.9434C784.325 78.9434 786.127 79.3125 787.727 80.0508C789.344 80.7715 790.715 81.791 791.84 83.1094C792.982 84.4102 793.853 85.9482 794.45 87.7236C795.048 89.4814 795.347 91.3887 795.347 93.4453V94.0518C795.347 96.1084 795.048 98.0156 794.45 99.7734C793.853 101.531 792.982 103.069 791.84 104.388C790.715 105.688 789.353 106.708 787.753 107.446C786.171 108.167 784.378 108.527 782.374 108.527C780.37 108.527 778.568 108.167 776.969 107.446C775.369 106.708 773.998 105.688 772.855 104.388C771.73 103.069 770.869 101.531 770.271 99.7734C769.674 98.0156 769.375 96.1084 769.375 94.0518ZM774.253 93.4453V94.0518C774.253 95.4756 774.42 96.8203 774.754 98.0859C775.088 99.334 775.589 100.441 776.257 101.408C776.942 102.375 777.795 103.14 778.814 103.702C779.834 104.247 781.021 104.52 782.374 104.52C783.71 104.52 784.879 104.247 785.881 103.702C786.9 103.14 787.744 102.375 788.412 101.408C789.08 100.441 789.581 99.334 789.915 98.0859C790.267 96.8203 790.442 95.4756 790.442 94.0518V93.4453C790.442 92.0391 790.267 90.7119 789.915 89.4639C789.581 88.1982 789.071 87.082 788.386 86.1152C787.718 85.1309 786.874 84.3574 785.854 83.7949C784.853 83.2324 783.675 82.9512 782.321 82.9512C780.985 82.9512 779.808 83.2324 778.788 83.7949C777.786 84.3574 776.942 85.1309 776.257 86.1152C775.589 87.082 775.088 88.1982 774.754 89.4639C774.42 90.7119 774.253 92.0391 774.253 93.4453ZM800.172 94.0518V93.4453C800.172 91.3887 800.471 89.4814 801.068 87.7236C801.666 85.9482 802.527 84.4102 803.652 83.1094C804.777 81.791 806.14 80.7715 807.739 80.0508C809.339 79.3125 811.132 78.9434 813.118 78.9434C815.122 78.9434 816.924 79.3125 818.523 80.0508C820.141 80.7715 821.512 81.791 822.637 83.1094C823.779 84.4102 824.649 85.9482 825.247 87.7236C825.845 89.4814 826.144 91.3887 826.144 93.4453V94.0518C826.144 96.1084 825.845 98.0156 825.247 99.7734C824.649 101.531 823.779 103.069 822.637 104.388C821.512 105.688 820.149 106.708 818.55 107.446C816.968 108.167 815.175 108.527 813.171 108.527C811.167 108.527 809.365 108.167 807.766 107.446C806.166 106.708 804.795 105.688 803.652 104.388C802.527 103.069 801.666 101.531 801.068 99.7734C800.471 98.0156 800.172 96.1084 800.172 94.0518ZM805.05 93.4453V94.0518C805.05 95.4756 805.217 96.8203 805.551 98.0859C805.885 99.334 806.386 100.441 807.054 101.408C807.739 102.375 808.592 103.14 809.611 103.702C810.631 104.247 811.817 104.52 813.171 104.52C814.507 104.52 815.676 104.247 816.678 103.702C817.697 103.14 818.541 102.375 819.209 101.408C819.877 100.441 820.378 99.334 820.712 98.0859C821.063 96.8203 821.239 95.4756 821.239 94.0518V93.4453C821.239 92.0391 821.063 90.7119 820.712 89.4639C820.378 88.1982 819.868 87.082 819.183 86.1152C818.515 85.1309 817.671 84.3574 816.651 83.7949C815.649 83.2324 814.472 82.9512 813.118 82.9512C811.782 82.9512 810.604 83.2324 809.585 83.7949C808.583 84.3574 807.739 85.1309 807.054 86.1152C806.386 87.082 805.885 88.1982 805.551 89.4639C805.217 90.7119 805.05 92.0391 805.05 93.4453ZM850.744 79.4707H855.174V107.394C855.174 109.907 854.664 112.052 853.645 113.827C852.625 115.603 851.201 116.947 849.373 117.861C847.562 118.793 845.471 119.259 843.098 119.259C842.113 119.259 840.953 119.101 839.617 118.784C838.299 118.485 836.998 117.967 835.715 117.229C834.449 116.508 833.386 115.532 832.524 114.302L835.082 111.401C836.277 112.843 837.525 113.845 838.826 114.407C840.145 114.97 841.445 115.251 842.729 115.251C844.275 115.251 845.611 114.961 846.736 114.381C847.861 113.801 848.731 112.939 849.347 111.797C849.979 110.672 850.296 109.283 850.296 107.631V85.7461L850.744 79.4707ZM831.101 94.0518V93.498C831.101 91.3184 831.355 89.3408 831.865 87.5654C832.393 85.7725 833.14 84.2344 834.106 82.9512C835.091 81.668 836.277 80.6836 837.666 79.998C839.055 79.2949 840.619 78.9434 842.359 78.9434C844.152 78.9434 845.717 79.2598 847.053 79.8926C848.406 80.5078 849.549 81.4131 850.48 82.6084C851.43 83.7861 852.177 85.21 852.722 86.8799C853.267 88.5498 853.645 90.4395 853.855 92.5488V94.9746C853.662 97.0664 853.284 98.9473 852.722 100.617C852.177 102.287 851.43 103.711 850.48 104.889C849.549 106.066 848.406 106.972 847.053 107.604C845.699 108.22 844.117 108.527 842.307 108.527C840.602 108.527 839.055 108.167 837.666 107.446C836.295 106.726 835.117 105.715 834.133 104.414C833.148 103.113 832.393 101.584 831.865 99.8262C831.355 98.0508 831.101 96.126 831.101 94.0518ZM835.979 93.498V94.0518C835.979 95.4756 836.119 96.8115 836.4 98.0596C836.699 99.3076 837.147 100.406 837.745 101.355C838.36 102.305 839.143 103.052 840.092 103.597C841.041 104.124 842.175 104.388 843.493 104.388C845.11 104.388 846.446 104.045 847.501 103.359C848.556 102.674 849.391 101.769 850.006 100.644C850.639 99.5186 851.131 98.2969 851.482 96.9785V90.624C851.289 89.6572 850.99 88.7256 850.586 87.8291C850.199 86.915 849.689 86.1064 849.057 85.4033C848.441 84.6826 847.677 84.1113 846.763 83.6895C845.849 83.2676 844.776 83.0566 843.546 83.0566C842.21 83.0566 841.059 83.3379 840.092 83.9004C839.143 84.4453 838.36 85.2012 837.745 86.168C837.147 87.1172 836.699 88.2246 836.4 89.4902C836.119 90.7383 835.979 92.0742 835.979 93.498ZM867.883 67.5V108H862.979V67.5H867.883ZM887.553 108.527C885.566 108.527 883.765 108.193 882.147 107.525C880.548 106.84 879.168 105.882 878.008 104.651C876.865 103.421 875.986 101.962 875.371 100.274C874.756 98.5869 874.448 96.7412 874.448 94.7373V93.6299C874.448 91.3096 874.791 89.2441 875.477 87.4336C876.162 85.6055 877.094 84.0586 878.271 82.793C879.449 81.5273 880.785 80.5693 882.279 79.9189C883.773 79.2686 885.32 78.9434 886.92 78.9434C888.959 78.9434 890.717 79.2949 892.193 79.998C893.688 80.7012 894.909 81.6855 895.858 82.9512C896.808 84.1992 897.511 85.6758 897.968 87.3809C898.425 89.0684 898.653 90.9141 898.653 92.918V95.1064H877.349V91.125H893.775V90.7559C893.705 89.4902 893.441 88.2598 892.984 87.0645C892.545 85.8691 891.842 84.8848 890.875 84.1113C889.908 83.3379 888.59 82.9512 886.92 82.9512C885.812 82.9512 884.793 83.1885 883.861 83.6631C882.93 84.1201 882.13 84.8057 881.462 85.7197C880.794 86.6338 880.275 87.75 879.906 89.0684C879.537 90.3867 879.353 91.9072 879.353 93.6299V94.7373C879.353 96.0908 879.537 97.3652 879.906 98.5605C880.293 99.7383 880.847 100.775 881.567 101.672C882.306 102.568 883.193 103.271 884.23 103.781C885.285 104.291 886.48 104.546 887.816 104.546C889.539 104.546 890.998 104.194 892.193 103.491C893.389 102.788 894.435 101.848 895.331 100.67L898.284 103.017C897.669 103.948 896.887 104.836 895.938 105.68C894.988 106.523 893.819 107.209 892.431 107.736C891.06 108.264 889.434 108.527 887.553 108.527Z" fill="black"/>
<path d="M121.4 90.9095C121.4 88.0731 121.146 85.3459 120.673 82.7275H83V98.2003H104.527C103.6 103.2 100.782 107.437 96.5456 110.273V120.31H109.473C117.036 113.346 121.4 103.091 121.4 90.9095Z" fill="#4285F4"/>
<path d="M82.9995 130.002C93.7995 130.002 102.854 126.42 109.472 120.311L96.5447 110.274C92.9631 112.674 88.3811 114.092 82.9995 114.092C72.5811 114.092 63.7631 107.056 60.6175 97.6016H47.2539V107.965C53.8359 121.038 67.3631 130.002 82.9995 130.002Z" fill="#34A853"/>
<path d="M60.618 97.5988C59.818 95.1988 59.3636 92.6352 59.3636 89.9988C59.3636 87.3624 59.818 84.7988 60.618 82.3988V72.0352H47.2544C44.5456 77.4352 43 83.5444 43 89.9988C43 96.4532 44.5456 102.562 47.2544 107.962L60.618 97.5988Z" fill="#FBBC04"/>
<path d="M83 65.9092C88.8724 65.9092 94.1452 67.9272 98.2908 71.8908L109.764 60.418C102.836 53.9636 93.7816 50 83 50C67.3636 50 53.8364 58.9636 47.2544 72.0364L60.618 82.4C63.7636 72.9456 72.5816 65.9092 83 65.9092Z" fill="#E94235"/>
</svg>
