<svg width="1200" height="180" viewBox="0 0 1200 180" fill="none" xmlns="http://www.w3.org/2000/svg">
<rect x="0.5" y="0.5" width="1199" height="179" rx="11.5" fill="white" stroke="black"/>
<path d="M86.5216 50C110.564 50 130.052 65.1884 130.052 83.9294C130.052 102.666 110.564 117.855 86.5258 117.855C84.1322 117.856 81.7409 117.703 79.3668 117.399L61.0943 129.35C59.0175 130.448 58.2838 130.328 59.1377 127.638L62.8353 112.391C50.8968 106.339 43 95.8513 43 83.9294C43 65.1926 62.483 50 86.5258 50M111.016 83.4112L117.11 77.5083C117.462 77.1431 117.658 76.6557 117.657 76.1488C117.656 75.6419 117.459 75.155 117.107 74.7907C116.754 74.4263 116.274 74.2131 115.767 74.1957C115.261 74.1784 114.767 74.3584 114.391 74.6978L106.398 82.4329V76.0409C106.398 75.5219 106.192 75.0243 105.825 74.6573C105.458 74.2904 104.961 74.0843 104.442 74.0843C103.923 74.0843 103.425 74.2904 103.058 74.6573C102.691 75.0243 102.485 75.5219 102.485 76.0409V86.6404C102.412 86.9428 102.412 87.2583 102.485 87.5607V93.5258C102.485 94.0447 102.691 94.5424 103.058 94.9093C103.425 95.2762 103.923 95.4824 104.442 95.4824C104.961 95.4824 105.458 95.2762 105.825 94.9093C106.192 94.5424 106.398 94.0447 106.398 93.5258V87.8757L108.168 86.1637L114.088 94.5911C114.236 94.8015 114.424 94.9808 114.641 95.1186C114.858 95.2564 115.1 95.3501 115.353 95.3944C115.606 95.4387 115.866 95.4326 116.117 95.3766C116.368 95.3205 116.605 95.2156 116.816 95.0678C117.026 94.92 117.205 94.7323 117.343 94.5152C117.481 94.2981 117.575 94.056 117.619 93.8028C117.663 93.5495 117.657 93.29 117.601 93.039C117.545 92.7881 117.44 92.5506 117.292 92.3402L111.016 83.4112ZM98.7545 91.3868H92.7023V76.103C92.6791 75.6002 92.4631 75.1257 92.0991 74.7781C91.7351 74.4305 91.2511 74.2365 90.7478 74.2365C90.2445 74.2365 89.7605 74.4305 89.3965 74.7781C89.0325 75.1257 88.8164 75.6002 88.7933 76.103V93.3434C88.7933 94.4212 89.6638 95.3 90.7457 95.3H98.7545C99.2734 95.3 99.771 95.0938 100.138 94.7269C100.505 94.36 100.711 93.8623 100.711 93.3434C100.711 92.8245 100.505 92.3268 100.138 91.9599C99.771 91.5929 99.2734 91.3868 98.7545 91.3868ZM74.4754 86.8643L77.3605 79.7841L80.0052 86.8601L74.4754 86.8643ZM84.934 88.883L84.9423 88.8167C84.9413 88.3238 84.7531 87.8496 84.4158 87.4902L80.0798 75.8833C79.8981 75.3302 79.5518 74.8457 79.0874 74.4946C78.623 74.1435 78.0624 73.9425 77.4807 73.9185C76.8947 73.9159 76.3219 74.0918 75.8383 74.4228C75.3548 74.7538 74.9835 75.2242 74.7738 75.7714L67.8843 92.6636C67.6881 93.144 67.6907 93.6827 67.8917 94.1612C68.0926 94.6397 68.4754 95.0188 68.9559 95.215C69.4363 95.4112 69.975 95.4086 70.4535 95.2076C70.932 95.0067 71.3111 94.6239 71.5073 94.1434L72.8836 90.7733H81.4644L82.6997 94.0895C82.7839 94.3374 82.9171 94.5659 83.0913 94.7614C83.2654 94.9568 83.477 95.1154 83.7136 95.2276C83.9501 95.3398 84.2068 95.4034 84.4684 95.4146C84.73 95.4258 84.9911 95.3844 85.2364 95.2928C85.4817 95.2013 85.7061 95.0614 85.8963 94.8815C86.0866 94.7017 86.2388 94.4854 86.344 94.2457C86.4491 94.0059 86.5051 93.7475 86.5085 93.4857C86.512 93.2239 86.4629 92.9641 86.3641 92.7216L84.934 88.883ZM71.1591 76.1238C71.1591 75.6056 70.9535 75.1085 70.5875 74.7417C70.2215 74.3749 69.7249 74.1683 69.2067 74.1672H55.7551C55.2362 74.1672 54.7385 74.3733 54.3716 74.7402C54.0047 75.1072 53.7985 75.6048 53.7985 76.1238C53.7985 76.6427 54.0047 77.1403 54.3716 77.5073C54.7385 77.8742 55.2362 78.0803 55.7551 78.0803H60.5637V93.5672C60.5637 94.0862 60.7698 94.5838 61.1368 94.9508C61.5037 95.3177 62.0014 95.5238 62.5203 95.5238C63.0392 95.5238 63.5369 95.3177 63.9038 94.9508C64.2707 94.5838 64.4769 94.0862 64.4769 93.5672V78.0803H69.2025C69.7214 78.0803 70.2191 77.8742 70.586 77.5073C70.953 77.1403 71.1591 76.6427 71.1591 76.1238Z" fill="black"/>
<path d="M496.738 103.86V108H477.543V103.86H496.738ZM478.545 69.6094V108H473.456V69.6094H478.545ZM500.535 94.0518V93.4453C500.535 91.3887 500.834 89.4814 501.432 87.7236C502.029 85.9482 502.891 84.4102 504.016 83.1094C505.141 81.791 506.503 80.7715 508.103 80.0508C509.702 79.3125 511.495 78.9434 513.481 78.9434C515.485 78.9434 517.287 79.3125 518.887 80.0508C520.504 80.7715 521.875 81.791 523 83.1094C524.143 84.4102 525.013 85.9482 525.61 87.7236C526.208 89.4814 526.507 91.3887 526.507 93.4453V94.0518C526.507 96.1084 526.208 98.0156 525.61 99.7734C525.013 101.531 524.143 103.069 523 104.388C521.875 105.688 520.513 106.708 518.913 107.446C517.331 108.167 515.538 108.527 513.534 108.527C511.53 108.527 509.729 108.167 508.129 107.446C506.529 106.708 505.158 105.688 504.016 104.388C502.891 103.069 502.029 101.531 501.432 99.7734C500.834 98.0156 500.535 96.1084 500.535 94.0518ZM505.413 93.4453V94.0518C505.413 95.4756 505.58 96.8203 505.914 98.0859C506.248 99.334 506.749 100.441 507.417 101.408C508.103 102.375 508.955 103.14 509.975 103.702C510.994 104.247 512.181 104.52 513.534 104.52C514.87 104.52 516.039 104.247 517.041 103.702C518.061 103.14 518.904 102.375 519.572 101.408C520.24 100.441 520.741 99.334 521.075 98.0859C521.427 96.8203 521.603 95.4756 521.603 94.0518V93.4453C521.603 92.0391 521.427 90.7119 521.075 89.4639C520.741 88.1982 520.231 87.082 519.546 86.1152C518.878 85.1309 518.034 84.3574 517.015 83.7949C516.013 83.2324 514.835 82.9512 513.481 82.9512C512.146 82.9512 510.968 83.2324 509.948 83.7949C508.946 84.3574 508.103 85.1309 507.417 86.1152C506.749 87.082 506.248 88.1982 505.914 89.4639C505.58 90.7119 505.413 92.0391 505.413 93.4453ZM551.107 79.4707H555.537V107.394C555.537 109.907 555.027 112.052 554.008 113.827C552.988 115.603 551.564 116.947 549.736 117.861C547.926 118.793 545.834 119.259 543.461 119.259C542.477 119.259 541.316 119.101 539.98 118.784C538.662 118.485 537.361 117.967 536.078 117.229C534.812 116.508 533.749 115.532 532.888 114.302L535.445 111.401C536.641 112.843 537.889 113.845 539.189 114.407C540.508 114.97 541.809 115.251 543.092 115.251C544.639 115.251 545.975 114.961 547.1 114.381C548.225 113.801 549.095 112.939 549.71 111.797C550.343 110.672 550.659 109.283 550.659 107.631V85.7461L551.107 79.4707ZM531.464 94.0518V93.498C531.464 91.3184 531.719 89.3408 532.229 87.5654C532.756 85.7725 533.503 84.2344 534.47 82.9512C535.454 81.668 536.641 80.6836 538.029 79.998C539.418 79.2949 540.982 78.9434 542.723 78.9434C544.516 78.9434 546.08 79.2598 547.416 79.8926C548.77 80.5078 549.912 81.4131 550.844 82.6084C551.793 83.7861 552.54 85.21 553.085 86.8799C553.63 88.5498 554.008 90.4395 554.219 92.5488V94.9746C554.025 97.0664 553.647 98.9473 553.085 100.617C552.54 102.287 551.793 103.711 550.844 104.889C549.912 106.066 548.77 106.972 547.416 107.604C546.062 108.22 544.48 108.527 542.67 108.527C540.965 108.527 539.418 108.167 538.029 107.446C536.658 106.726 535.48 105.715 534.496 104.414C533.512 103.113 532.756 101.584 532.229 99.8262C531.719 98.0508 531.464 96.126 531.464 94.0518ZM536.342 93.498V94.0518C536.342 95.4756 536.482 96.8115 536.764 98.0596C537.062 99.3076 537.511 100.406 538.108 101.355C538.724 102.305 539.506 103.052 540.455 103.597C541.404 104.124 542.538 104.388 543.856 104.388C545.474 104.388 546.81 104.045 547.864 103.359C548.919 102.674 549.754 101.769 550.369 100.644C551.002 99.5186 551.494 98.2969 551.846 96.9785V90.624C551.652 89.6572 551.354 88.7256 550.949 87.8291C550.562 86.915 550.053 86.1064 549.42 85.4033C548.805 84.6826 548.04 84.1113 547.126 83.6895C546.212 83.2676 545.14 83.0566 543.909 83.0566C542.573 83.0566 541.422 83.3379 540.455 83.9004C539.506 84.4453 538.724 85.2012 538.108 86.168C537.511 87.1172 537.062 88.2246 536.764 89.4902C536.482 90.7383 536.342 92.0742 536.342 93.498ZM568.246 79.4707V108H563.342V79.4707H568.246ZM562.973 71.9033C562.973 71.1123 563.21 70.4443 563.685 69.8994C564.177 69.3545 564.897 69.082 565.847 69.082C566.778 69.082 567.49 69.3545 567.982 69.8994C568.492 70.4443 568.747 71.1123 568.747 71.9033C568.747 72.6592 568.492 73.3096 567.982 73.8545C567.49 74.3818 566.778 74.6455 565.847 74.6455C564.897 74.6455 564.177 74.3818 563.685 73.8545C563.21 73.3096 562.973 72.6592 562.973 71.9033ZM580.955 85.5615V108H576.077V79.4707H580.691L580.955 85.5615ZM579.795 92.6543L577.765 92.5752C577.782 90.624 578.072 88.8223 578.635 87.1699C579.197 85.5 579.988 84.0498 581.008 82.8193C582.027 81.5889 583.24 80.6396 584.646 79.9717C586.07 79.2861 587.644 78.9434 589.366 78.9434C590.772 78.9434 592.038 79.1367 593.163 79.5234C594.288 79.8926 595.246 80.4902 596.037 81.3164C596.846 82.1426 597.461 83.2148 597.883 84.5332C598.305 85.834 598.516 87.4248 598.516 89.3057V108H593.611V89.2529C593.611 87.7588 593.392 86.5635 592.952 85.667C592.513 84.7529 591.871 84.0938 591.027 83.6895C590.184 83.2676 589.146 83.0566 587.916 83.0566C586.703 83.0566 585.596 83.3115 584.594 83.8213C583.609 84.3311 582.757 85.0342 582.036 85.9307C581.333 86.8271 580.779 87.8555 580.375 89.0156C579.988 90.1582 579.795 91.3711 579.795 92.6543ZM626.544 102.938L633.874 79.4707H637.091L636.458 84.1377L628.996 108H625.858L626.544 102.938ZM621.613 79.4707L627.862 103.201L628.311 108H625.015L616.735 79.4707H621.613ZM644.104 103.017L650.063 79.4707H654.915L646.636 108H643.366L644.104 103.017ZM637.803 79.4707L644.975 102.542L645.792 108H642.681L635.008 84.085L634.375 79.4707H637.803ZM665.225 79.4707V108H660.32V79.4707H665.225ZM659.951 71.9033C659.951 71.1123 660.188 70.4443 660.663 69.8994C661.155 69.3545 661.876 69.082 662.825 69.082C663.757 69.082 664.469 69.3545 664.961 69.8994C665.471 70.4443 665.726 71.1123 665.726 71.9033C665.726 72.6592 665.471 73.3096 664.961 73.8545C664.469 74.3818 663.757 74.6455 662.825 74.6455C661.876 74.6455 661.155 74.3818 660.663 73.8545C660.188 73.3096 659.951 72.6592 659.951 71.9033ZM685 79.4707V83.2148H669.575V79.4707H685ZM674.796 72.5361H679.674V100.934C679.674 101.9 679.823 102.63 680.122 103.122C680.421 103.614 680.808 103.939 681.282 104.098C681.757 104.256 682.267 104.335 682.812 104.335C683.216 104.335 683.638 104.3 684.077 104.229C684.534 104.142 684.877 104.071 685.105 104.019L685.132 108C684.745 108.123 684.235 108.237 683.603 108.343C682.987 108.466 682.24 108.527 681.361 108.527C680.166 108.527 679.067 108.29 678.065 107.815C677.063 107.341 676.264 106.55 675.666 105.442C675.086 104.317 674.796 102.806 674.796 100.907V72.5361ZM695.6 67.5V108H690.722V67.5H695.6ZM694.439 92.6543L692.409 92.5752C692.427 90.624 692.717 88.8223 693.279 87.1699C693.842 85.5 694.633 84.0498 695.652 82.8193C696.672 81.5889 697.885 80.6396 699.291 79.9717C700.715 79.2861 702.288 78.9434 704.011 78.9434C705.417 78.9434 706.683 79.1367 707.808 79.5234C708.933 79.8926 709.891 80.4902 710.682 81.3164C711.49 82.1426 712.105 83.2148 712.527 84.5332C712.949 85.834 713.16 87.4248 713.16 89.3057V108H708.256V89.2529C708.256 87.7588 708.036 86.5635 707.597 85.667C707.157 84.7529 706.516 84.0938 705.672 83.6895C704.828 83.2676 703.791 83.0566 702.561 83.0566C701.348 83.0566 700.24 83.3115 699.238 83.8213C698.254 84.3311 697.401 85.0342 696.681 85.9307C695.978 86.8271 695.424 87.8555 695.02 89.0156C694.633 90.1582 694.439 91.3711 694.439 92.6543ZM739.686 69.6094V108H734.597V69.6094H739.686ZM762.862 69.6094L746.91 87.5127L737.945 96.8203L737.102 91.3887L743.852 83.9531L756.745 69.6094H762.862ZM757.958 108L743.746 89.2793L746.778 85.2451L764.022 108H757.958ZM784.589 103.122V88.4355C784.589 87.3105 784.36 86.335 783.903 85.5088C783.464 84.665 782.796 84.0146 781.899 83.5576C781.003 83.1006 779.896 82.8721 778.577 82.8721C777.347 82.8721 776.266 83.083 775.334 83.5049C774.42 83.9268 773.699 84.4805 773.172 85.166C772.662 85.8516 772.407 86.5898 772.407 87.3809H767.529C767.529 86.3613 767.793 85.3506 768.32 84.3486C768.848 83.3467 769.604 82.4414 770.588 81.6328C771.59 80.8066 772.785 80.1562 774.174 79.6816C775.58 79.1895 777.145 78.9434 778.867 78.9434C780.941 78.9434 782.77 79.2949 784.352 79.998C785.951 80.7012 787.199 81.7646 788.096 83.1885C789.01 84.5947 789.467 86.3613 789.467 88.4883V101.777C789.467 102.727 789.546 103.737 789.704 104.81C789.88 105.882 790.135 106.805 790.469 107.578V108H785.38C785.134 107.438 784.94 106.69 784.8 105.759C784.659 104.81 784.589 103.931 784.589 103.122ZM785.433 90.7031L785.485 94.1309H780.555C779.166 94.1309 777.927 94.2451 776.837 94.4736C775.747 94.6846 774.833 95.0098 774.095 95.4492C773.356 95.8887 772.794 96.4424 772.407 97.1104C772.021 97.7607 771.827 98.5254 771.827 99.4043C771.827 100.301 772.029 101.118 772.434 101.856C772.838 102.595 773.444 103.184 774.253 103.623C775.079 104.045 776.09 104.256 777.285 104.256C778.779 104.256 780.098 103.939 781.24 103.307C782.383 102.674 783.288 101.9 783.956 100.986C784.642 100.072 785.011 99.1846 785.063 98.3232L787.146 100.67C787.023 101.408 786.689 102.226 786.145 103.122C785.6 104.019 784.87 104.88 783.956 105.706C783.06 106.515 781.987 107.191 780.739 107.736C779.509 108.264 778.12 108.527 776.573 108.527C774.64 108.527 772.943 108.149 771.484 107.394C770.043 106.638 768.918 105.627 768.109 104.361C767.318 103.078 766.923 101.646 766.923 100.063C766.923 98.5342 767.222 97.1895 767.819 96.0293C768.417 94.8516 769.278 93.876 770.403 93.1025C771.528 92.3115 772.882 91.7139 774.464 91.3096C776.046 90.9053 777.812 90.7031 779.764 90.7031H785.433ZM802.044 67.5V108H797.14V67.5H802.044ZM819.473 79.4707L807.027 92.7861L800.066 100.011L799.671 94.8164L804.654 88.8574L813.514 79.4707H819.473ZM815.017 108L804.839 94.3945L807.37 90.0439L820.765 108H815.017ZM841.331 103.122V88.4355C841.331 87.3105 841.103 86.335 840.646 85.5088C840.206 84.665 839.538 84.0146 838.642 83.5576C837.745 83.1006 836.638 82.8721 835.319 82.8721C834.089 82.8721 833.008 83.083 832.076 83.5049C831.162 83.9268 830.441 84.4805 829.914 85.166C829.404 85.8516 829.149 86.5898 829.149 87.3809H824.271C824.271 86.3613 824.535 85.3506 825.062 84.3486C825.59 83.3467 826.346 82.4414 827.33 81.6328C828.332 80.8066 829.527 80.1562 830.916 79.6816C832.322 79.1895 833.887 78.9434 835.609 78.9434C837.684 78.9434 839.512 79.2949 841.094 79.998C842.693 80.7012 843.941 81.7646 844.838 83.1885C845.752 84.5947 846.209 86.3613 846.209 88.4883V101.777C846.209 102.727 846.288 103.737 846.446 104.81C846.622 105.882 846.877 106.805 847.211 107.578V108H842.122C841.876 107.438 841.683 106.69 841.542 105.759C841.401 104.81 841.331 103.931 841.331 103.122ZM842.175 90.7031L842.228 94.1309H837.297C835.908 94.1309 834.669 94.2451 833.579 94.4736C832.489 94.6846 831.575 95.0098 830.837 95.4492C830.099 95.8887 829.536 96.4424 829.149 97.1104C828.763 97.7607 828.569 98.5254 828.569 99.4043C828.569 100.301 828.771 101.118 829.176 101.856C829.58 102.595 830.187 103.184 830.995 103.623C831.821 104.045 832.832 104.256 834.027 104.256C835.521 104.256 836.84 103.939 837.982 103.307C839.125 102.674 840.03 101.9 840.698 100.986C841.384 100.072 841.753 99.1846 841.806 98.3232L843.889 100.67C843.766 101.408 843.432 102.226 842.887 103.122C842.342 104.019 841.612 104.88 840.698 105.706C839.802 106.515 838.729 107.191 837.481 107.736C836.251 108.264 834.862 108.527 833.315 108.527C831.382 108.527 829.686 108.149 828.227 107.394C826.785 106.638 825.66 105.627 824.852 104.361C824.061 103.078 823.665 101.646 823.665 100.063C823.665 98.5342 823.964 97.1895 824.562 96.0293C825.159 94.8516 826.021 93.876 827.146 93.1025C828.271 92.3115 829.624 91.7139 831.206 91.3096C832.788 90.9053 834.555 90.7031 836.506 90.7031H842.175ZM852.59 94.0518V93.4453C852.59 91.3887 852.889 89.4814 853.486 87.7236C854.084 85.9482 854.945 84.4102 856.07 83.1094C857.195 81.791 858.558 80.7715 860.157 80.0508C861.757 79.3125 863.55 78.9434 865.536 78.9434C867.54 78.9434 869.342 79.3125 870.941 80.0508C872.559 80.7715 873.93 81.791 875.055 83.1094C876.197 84.4102 877.067 85.9482 877.665 87.7236C878.263 89.4814 878.562 91.3887 878.562 93.4453V94.0518C878.562 96.1084 878.263 98.0156 877.665 99.7734C877.067 101.531 876.197 103.069 875.055 104.388C873.93 105.688 872.567 106.708 870.968 107.446C869.386 108.167 867.593 108.527 865.589 108.527C863.585 108.527 861.783 108.167 860.184 107.446C858.584 106.708 857.213 105.688 856.07 104.388C854.945 103.069 854.084 101.531 853.486 99.7734C852.889 98.0156 852.59 96.1084 852.59 94.0518ZM857.468 93.4453V94.0518C857.468 95.4756 857.635 96.8203 857.969 98.0859C858.303 99.334 858.804 100.441 859.472 101.408C860.157 102.375 861.01 103.14 862.029 103.702C863.049 104.247 864.235 104.52 865.589 104.52C866.925 104.52 868.094 104.247 869.096 103.702C870.115 103.14 870.959 102.375 871.627 101.408C872.295 100.441 872.796 99.334 873.13 98.0859C873.481 96.8203 873.657 95.4756 873.657 94.0518V93.4453C873.657 92.0391 873.481 90.7119 873.13 89.4639C872.796 88.1982 872.286 87.082 871.601 86.1152C870.933 85.1309 870.089 84.3574 869.069 83.7949C868.067 83.2324 866.89 82.9512 865.536 82.9512C864.2 82.9512 863.022 83.2324 862.003 83.7949C861.001 84.3574 860.157 85.1309 859.472 86.1152C858.804 87.082 858.303 88.1982 857.969 89.4639C857.635 90.7119 857.468 92.0391 857.468 93.4453Z" fill="black"/>
</svg>
