<svg width="180" height="87" viewBox="0 0 180 87" fill="none" xmlns="http://www.w3.org/2000/svg">
<path d="M174.72 86.1854H8.36536C5.71406 86.1854 3.40409 83.888 3.3199 81.1674L5.29726 5.12641C5.20839 2.25465 7.38085 0.108398 10.0321 0.108398H167.74C170.391 0.108398 172.701 2.4058 172.786 5.12641L179.469 81.1674C179.553 83.888 177.386 86.1854 174.72 86.1854Z" fill="#D5D5D5"/>
<path d="M13.5659 16.0795C13.6121 17.5714 14.6559 18.6218 15.9456 18.6218H22.7899C24.0796 18.6218 25.0541 17.4344 25.0122 16.0795L25.109 12.5781H13.7654L13.5659 16.0795ZM30.8013 16.0795C30.8475 17.5714 31.8912 18.6218 33.1809 18.6218H39.9227C41.3736 18.6218 42.1907 17.5561 42.145 16.0795L42.0366 12.5781H30.7369L30.8013 16.0795ZM47.0254 16.0795C47.0716 17.5714 48.2472 18.6218 49.5516 18.6218H56.2933C57.583 18.6218 58.7102 17.6323 58.6622 16.0795L58.5538 12.5781H46.917L47.0254 16.0795ZM63.528 16.0795C63.5741 17.5714 64.7498 18.6218 66.0542 18.6218H72.7959C74.0856 18.6218 75.2152 17.7084 75.1647 16.0795L75.0564 12.5781H63.4196L63.528 16.0795ZM79.8986 16.0795C79.9448 17.5714 80.9299 18.6218 82.4248 18.6218H89.1665C90.4563 18.6218 91.59 17.8454 91.5354 16.0795L91.4271 12.5781H79.7903L79.8986 16.0795ZM96.4158 16.0795C96.462 17.5714 97.6377 18.6218 98.942 18.6218H105.684C106.973 18.6218 108.107 17.8454 108.053 16.0795L107.944 12.5781H96.3075L96.4158 16.0795ZM112.786 16.0795C112.833 17.5714 114.008 18.6218 115.313 18.6218H122.054C123.344 18.6218 124.409 17.9824 124.423 16.0795L124.315 12.5781H112.678L112.786 16.0795ZM129.142 16.0795C129.189 17.5714 130.364 18.6218 131.669 18.6218H138.718C140.228 18.6218 141.397 17.5866 141.215 15.9425L140.92 12.5781H129.034L129.142 16.0795ZM146.378 16.0795C146.424 17.5714 147.6 18.6218 148.904 18.6218H161.904C163.194 18.6218 164.319 17.5714 164.273 16.0795L163.93 12.5781H146.284L146.392 16.0795H146.378ZM152.999 33.9669C153.04 35.3065 154.221 36.5092 155.525 36.5092H163.498C164.788 36.5092 165.913 35.4588 165.867 33.9669L165.65 31.6986H152.943L153.014 33.9669H152.999ZM136.306 33.9669C136.347 35.3065 137.396 36.5092 138.832 36.5092H145.574C146.863 36.5092 147.989 35.4588 147.943 33.9669L147.872 31.6986H136.236L136.306 33.9669ZM119.789 33.9669C119.977 35.3065 121.01 36.5092 122.315 36.5092H129.057C130.346 36.5092 131.472 35.4588 131.425 33.9669L131.355 31.6986H119.718L119.789 33.9669ZM103.433 33.9669C103.474 35.3065 104.654 36.5092 105.959 36.5092H112.701C113.99 36.5092 115.116 35.4588 115.069 33.9669L114.999 31.6986H103.362L103.433 33.9669ZM86.9154 33.9669C87.1034 35.3065 88.1372 36.5092 89.4416 36.5092H96.1833C97.473 36.5092 98.5984 35.4588 98.5522 33.9669L98.482 31.6986H86.8452L86.9154 33.9669ZM70.5447 33.9669C70.5862 35.3065 71.7666 36.5092 73.0709 36.5092H79.8127C81.1024 36.5092 82.2277 35.4588 82.1815 33.9669L82.1113 31.6986H70.4745L70.5447 33.9669ZM54.1741 33.9669C54.2155 35.3065 55.3959 36.5092 56.7003 36.5092H63.442C64.7317 36.5092 65.857 35.4588 65.8109 33.9669L65.7407 31.6986H54.1039L54.1741 33.9669ZM37.8034 33.9669C37.8449 35.3065 38.8934 36.5092 40.1831 36.5092H46.9248C48.2145 36.5092 49.3398 35.4588 49.2937 33.9669L49.2235 31.6986H37.7332L37.8034 33.9669ZM13.1668 33.9669C13.2083 35.3065 14.2568 36.5092 15.5465 36.5092H29.7041C30.9938 36.5092 31.9726 35.4588 31.9264 33.9669L31.8562 31.6986L13.1099 31.6529L13.1668 33.9669ZM113.19 52.3262C113.228 53.5593 114.278 54.7924 115.567 54.7924H122.309C123.599 54.7924 124.577 53.7115 124.534 52.3262L124.469 50.2406H113.125L113.19 52.3262ZM95.9546 52.3262C95.9928 53.5593 97.0422 54.7924 98.3319 54.7924H105.074C106.363 54.7924 107.341 53.7115 107.298 52.3262L107.219 50.2406H95.8901L95.9546 52.3262ZM78.7193 52.3262C78.7574 53.5593 79.8069 54.7924 81.0966 54.7924H87.8383C89.128 54.7924 90.1058 53.7115 90.063 52.3262L89.9984 50.2406H78.6547L78.7193 52.3262ZM61.4986 52.3262C61.3902 53.5593 62.5862 54.7924 63.8759 54.7924H70.6176C71.9073 54.7924 72.8851 53.7115 72.8423 52.3262L72.7777 50.2406H61.4341L61.4986 52.3262ZM44.2632 52.3262C44.1548 53.5593 45.3508 54.7924 46.6405 54.7924H53.3823C54.672 54.7924 55.6498 53.7115 55.6069 52.3262L55.5551 50.6516H44.2114L44.2632 52.3262ZM13.1001 52.174C13.1429 53.5593 14.1923 54.7924 15.4821 54.7924H35.2529C36.5426 54.7924 37.5204 53.7115 37.4728 52.174L37.587 50.1797H13.0677L13.1001 52.174ZM131.173 52.3262C131.367 53.8638 132.397 54.9446 133.701 54.9446H164.962C166.252 54.9446 167.377 53.8638 167.329 52.3262L167.248 50.1797L131.079 50.2558L131.173 52.3262ZM157.353 72.832H166.337C167.626 72.832 168.75 71.7359 168.702 70.1832L168.629 67.8235H154.75L154.823 70.1832C154.867 71.5989 156.063 72.832 157.353 72.832ZM138.52 72.832H146.141C147.431 72.832 148.554 71.7359 148.506 70.1832L148.43 67.7018L135.932 67.8235L136.005 70.1832C136.034 71.5989 137.083 72.832 138.52 72.832ZM54.087 72.832H127.308C128.598 72.832 129.722 71.7359 129.674 70.1832L129.601 67.8235H51.4845L51.5722 70.1832C51.6283 71.9947 52.7973 72.832 54.087 72.832ZM35.6206 72.832H43.0365C44.3262 72.832 45.4501 71.7359 45.4021 70.1832L45.329 67.8235L33.3197 68.0976L33.3989 70.1832C33.3869 71.6903 34.3309 72.832 35.6206 72.832ZM14.8971 72.832H24.2916C25.5813 72.832 26.5586 71.7359 26.5106 70.1832L26.4376 67.8235H12.4558L12.5288 70.1832C12.558 71.5989 13.5928 72.832 14.8971 72.832Z" fill="#2F7889"/>
<path d="M23.0164 22.1812H16.2753C14.9857 22.1812 13.9449 21.2228 13.902 19.8368L14.3612 13.3639C14.3228 12.1254 15.2998 11.0195 16.5894 11.0195H23.3305C24.6201 11.0195 25.6609 11.9779 25.7038 13.3639L25.2446 19.8368C25.283 21.0754 24.306 22.1812 23.0164 22.1812ZM40.045 22.1812H33.3039C32.0143 22.1812 30.9735 21.2228 30.9306 19.8368L30.9794 13.3639C30.9411 12.1254 31.918 11.0195 33.2076 11.0195H39.6996C40.9892 11.0195 42.03 11.9779 42.0729 13.3639L42.2732 19.8368C42.3179 21.2818 41.4812 22.1812 40.045 22.1812ZM56.4141 22.1812H49.673C48.3834 22.1812 47.1961 21.2228 47.1532 19.8368L46.9529 13.3639C46.9146 12.1254 47.8915 11.0195 49.3276 11.0195H56.0687C57.3583 11.0195 58.5457 11.9779 58.5886 13.3639L58.7889 19.8368C58.8126 21.0754 57.7037 22.1812 56.4141 22.1812ZM72.9152 22.1812H66.1741C64.8845 22.1812 63.6971 21.2228 63.6542 19.8368L63.4539 13.3639C63.4156 12.1254 64.3925 11.0195 65.8287 11.0195H72.5698C73.8594 11.0195 75.0467 11.9779 75.0896 13.3639L75.2899 19.8368C75.3333 21.2376 74.2048 22.1812 72.9152 22.1812ZM89.2843 22.1812H82.5432C81.2536 22.1812 80.0662 21.2228 80.0233 19.8368L79.823 13.3639C79.7847 12.1254 80.7617 11.0195 82.1978 11.0195H88.9389C90.2285 11.0195 91.4159 11.9779 91.4588 13.3639L91.6591 19.8368C91.6974 21.0754 90.5739 22.1812 89.2843 22.1812ZM105.8 22.1812H99.0589C97.7693 22.1812 96.5819 21.2228 96.539 19.8368L96.3387 13.3639C96.3004 12.1254 97.2773 11.0195 98.7135 11.0195H105.455C106.744 11.0195 107.932 11.9779 107.974 13.3639L108.175 19.8368C108.205 21.2966 107.09 22.1812 105.8 22.1812ZM122.169 22.1812H115.428C114.138 22.1812 112.951 21.2228 112.908 19.8368L112.708 13.3639C112.67 12.1254 113.646 11.0195 115.083 11.0195H121.824C123.113 11.0195 124.301 11.9779 124.344 13.3639L124.544 19.8368C124.575 21.3261 123.459 22.1812 122.169 22.1812ZM138.831 22.1812H131.783C130.493 22.1812 129.306 21.2228 129.263 19.8368L129.062 13.3639C129.024 12.1254 130.001 11.0195 131.437 11.0195H138.178C139.468 11.0195 140.655 11.9779 140.698 13.3639L141.191 19.8368C141.23 21.0754 140.121 22.1812 138.831 22.1812ZM161.824 22.1812H149.016C147.727 22.1812 146.539 21.2228 146.496 19.8368L146.296 13.3639C146.258 12.1254 147.235 11.0195 148.671 11.0195H161.157C162.446 11.0195 163.633 11.9779 163.676 13.3639L164.199 19.8368C164.223 21.0754 163.114 22.1812 161.824 22.1812ZM155.611 39.6979H163.583C164.872 39.6979 166 38.7395 165.957 37.3535L165.303 30.8806C165.265 29.642 164.219 28.5362 162.783 28.5362H155.28C153.99 28.5362 152.862 29.4946 152.905 30.8806L153.105 37.3535C153.144 38.5921 154.321 39.6979 155.611 39.6979ZM138.934 39.6979H145.675C146.964 39.6979 148.093 38.7395 148.05 37.3535L147.849 30.8806C147.811 29.642 146.766 28.5362 145.329 28.5362H138.588C137.299 28.5362 136.171 29.4946 136.214 30.8806L136.414 37.3535C136.452 38.5921 137.498 39.6979 138.934 39.6979ZM122.418 39.6979H129.159C130.449 39.6979 131.577 38.7395 131.534 37.3535L131.334 30.8806C131.295 29.642 130.25 28.5362 128.814 28.5362H122.073C120.783 28.5362 119.655 29.4946 119.698 30.8806L119.898 37.3535C120.083 38.5921 121.128 39.6979 122.418 39.6979ZM106.049 39.6979H112.79C114.08 39.6979 115.208 38.7395 115.165 37.3535L114.964 30.8806C114.926 29.642 113.881 28.5362 112.445 28.5362H105.704C104.414 28.5362 103.286 29.4946 103.329 30.8806L103.529 37.3535C103.582 38.5921 104.759 39.6979 106.049 39.6979ZM89.5479 39.6979H96.289C97.5786 39.6979 98.7067 38.7395 98.6638 37.3535L98.4635 30.8806C98.4251 29.642 97.3798 28.5362 95.9436 28.5362H89.2025C87.9129 28.5362 86.7849 29.4946 86.8278 30.8806L87.0281 37.3535C87.2129 38.5921 88.2437 39.6979 89.5479 39.6979ZM73.1788 39.6979H79.9199C81.2095 39.6979 82.3375 38.7395 82.2946 37.3535L82.0943 30.8806C82.056 29.642 81.0106 28.5362 79.5745 28.5362H72.8334C71.5438 28.5362 70.4157 29.4946 70.4586 30.8806L70.6589 37.3535C70.6973 38.5921 71.8892 39.6979 73.1788 39.6979ZM56.8096 39.6979H63.5507C64.8403 39.6979 65.9684 38.7395 65.9255 37.3535L65.7252 30.8806C65.6869 29.642 64.6415 28.5362 63.2053 28.5362H56.4642C55.1746 28.5362 54.0466 29.4946 54.0895 30.8806L54.2898 37.3535C54.3281 38.5921 55.52 39.6979 56.8096 39.6979ZM40.294 39.6979H47.0351C48.3247 39.6979 49.4527 38.7395 49.4098 37.3535L49.2095 30.8806C49.1712 29.642 48.1258 28.5362 46.6897 28.5362H39.9486C38.659 28.5362 37.6775 29.4946 37.7204 30.8806L37.9207 37.3535C37.959 38.5921 39.0044 39.6979 40.294 39.6979ZM15.6597 39.6979H29.816C31.1056 39.6979 32.0871 38.7395 32.0442 37.3535L31.8439 30.8806C31.8055 29.642 30.7602 28.5362 29.4706 28.5362H15.8272C14.5376 28.5362 13.5561 29.4946 13.599 30.8806L13.2864 37.3535C13.3247 38.5921 14.3701 39.6979 15.6597 39.6979ZM115.635 57.2736H122.376C123.665 57.2736 124.647 56.3152 124.609 55.0766L124.408 48.6037C124.37 47.3651 123.329 46.4067 122.039 46.4067H115.298C114.009 46.4067 113.027 47.3651 113.066 48.6037L113.266 55.0766C113.314 56.1677 114.345 57.2736 115.635 57.2736ZM98.4156 57.2736H105.157C106.446 57.2736 107.428 56.3152 107.389 55.0766L107.189 48.6037C107.151 47.3651 106.11 46.4067 104.82 46.4067H98.0793C96.7897 46.4067 95.8082 47.3651 95.8465 48.6037L96.0468 55.0766C96.0806 56.1677 97.126 57.2736 98.4156 57.2736ZM81.1818 57.2736H87.9229C89.2125 57.2736 90.194 56.3152 90.1557 55.0766L89.9554 48.6037C89.9171 47.3651 88.8763 46.4067 87.5867 46.4067H80.8456C79.556 46.4067 78.5744 47.3651 78.6128 48.6037L78.8131 55.0766C78.8468 56.1677 79.8922 57.2736 81.1818 57.2736ZM63.9481 57.2736H70.6892C71.9788 57.2736 72.9603 56.3152 72.9219 55.0766L72.7216 48.6037C72.6833 47.3651 71.6425 46.4067 70.3529 46.4067H63.6118C62.3222 46.4067 61.3407 47.3651 61.379 48.6037L61.5793 55.0766C61.6296 56.2267 62.6585 57.2736 63.9481 57.2736ZM46.729 57.2736H53.4701C54.7597 57.2736 55.7412 56.3152 55.7028 55.0766L55.5025 48.6037C55.4642 47.3651 54.4234 46.4067 53.1338 46.4067H46.3927C45.1031 46.4067 44.1216 47.3651 44.1599 48.6037L44.3602 55.0766C44.2474 56.1677 45.4394 57.2736 46.729 57.2736ZM15.5734 57.2736H35.5329C36.8225 57.2736 37.804 56.3152 37.7611 54.9292L37.9858 48.4562C37.9475 47.2177 36.9021 46.1118 35.6125 46.1118H15.5651C14.2755 46.1118 13.2939 47.0702 13.3368 48.4562L13.2001 54.9292C13.2384 56.1677 14.2838 57.2736 15.5734 57.2736ZM133.693 57.4063H165.025C166.314 57.4063 167.442 56.4479 167.399 55.0619L166.688 48.1761C166.65 46.9375 165.604 45.8317 164.168 45.8317H132.969C131.679 45.8317 130.551 46.7901 130.594 48.1761L131.173 55.0619C131.363 56.4479 132.404 57.4063 133.693 57.4063ZM157.412 74.7165H166.396C167.685 74.7165 168.813 73.7581 168.77 72.3721L168.145 65.8992C168.107 64.6606 167.061 63.5548 165.625 63.5548H157.067C155.777 63.5548 154.649 64.5132 154.692 65.8992L154.893 72.3721C154.931 73.6107 156.123 74.7165 157.412 74.7165ZM138.581 74.7165H146.202C147.491 74.7165 148.619 73.7581 148.576 72.3721L148.376 65.8992C148.338 64.6606 147.292 63.5548 145.856 63.5548H138.236C136.946 63.5548 135.818 64.5132 135.861 65.8992L136.061 72.3721C136.1 73.6107 137.145 74.7165 138.581 74.7165ZM54.1564 74.7165H127.371C128.66 74.7165 129.788 73.7581 129.745 72.3721L129.545 65.8992C129.507 64.6606 128.461 63.5548 127.025 63.5548H53.811C52.5214 63.5548 51.3933 64.5132 51.4362 65.8992L51.6365 72.3721C51.5658 73.8761 52.8668 74.7165 54.1564 74.7165ZM35.6917 74.7165H43.1069C44.3965 74.7165 45.5245 73.7581 45.4816 72.3721L45.2813 65.8992C45.243 64.6606 44.1976 63.5548 42.908 63.5548L35.4497 63.5843C34.1601 63.5843 33.1786 64.5427 33.2215 65.9287L33.4649 72.3721C33.4615 73.6844 34.4021 74.7165 35.6917 74.7165ZM14.9701 74.7165H24.3637C25.6533 74.7165 26.6348 73.7581 26.5919 72.3721L26.3916 65.8992C26.3533 64.6606 25.3079 63.5548 24.0183 63.5548H15.2549C13.9653 63.5548 12.9838 64.5132 13.0266 65.8992L12.5968 72.3721C12.6351 73.6107 13.6659 74.7165 14.9701 74.7165Z" fill="#5C5C5C"/>
</svg>
