    <svg xmlns="http://www.w3.org/2000/svg" width="3em" height="3em" viewBox="0 0 64 64">
              <path fill="#d1d1d1" d="M62 6c0-2-2-4-4-4H6C4 2 2 4 2 6v38h60z" />
              <path fill="#e8e8e8" d="M2 44v4c0 2 2 4 4 4h52c2 0 4-2 4-4v-4z" />
              <path fill="#bfbebe" d="M24 54c0 4-4 4-8 4h32c-4 0-8 0-8-4v-2H24z" />
              <path fill="#404040" d="M6 6h52v34H6z" />
              <g fill="#94989b">
                <circle cx="32" cy="47.9" r="1" />
                <path d="M16 58h32v4H16z" />
              </g>
            </svg>