<svg width="1200" height="180" viewBox="0 0 1200 180" fill="none" xmlns="http://www.w3.org/2000/svg">
<rect x="0.5" y="0.5" width="1199" height="179" rx="11.5" fill="white" stroke="black"/>
<path d="M496.738 103.86V108H477.543V103.86H496.738ZM478.545 69.6094V108H473.456V69.6094H478.545ZM500.535 94.0518V93.4453C500.535 91.3887 500.834 89.4814 501.432 87.7236C502.029 85.9482 502.891 84.4102 504.016 83.1094C505.141 81.791 506.503 80.7715 508.103 80.0508C509.702 79.3125 511.495 78.9434 513.481 78.9434C515.485 78.9434 517.287 79.3125 518.887 80.0508C520.504 80.7715 521.875 81.791 523 83.1094C524.143 84.4102 525.013 85.9482 525.61 87.7236C526.208 89.4814 526.507 91.3887 526.507 93.4453V94.0518C526.507 96.1084 526.208 98.0156 525.61 99.7734C525.013 101.531 524.143 103.069 523 104.388C521.875 105.688 520.513 106.708 518.913 107.446C517.331 108.167 515.538 108.527 513.534 108.527C511.53 108.527 509.729 108.167 508.129 107.446C506.529 106.708 505.158 105.688 504.016 104.388C502.891 103.069 502.029 101.531 501.432 99.7734C500.834 98.0156 500.535 96.1084 500.535 94.0518ZM505.413 93.4453V94.0518C505.413 95.4756 505.58 96.8203 505.914 98.0859C506.248 99.334 506.749 100.441 507.417 101.408C508.103 102.375 508.955 103.14 509.975 103.702C510.994 104.247 512.181 104.52 513.534 104.52C514.87 104.52 516.039 104.247 517.041 103.702C518.061 103.14 518.904 102.375 519.572 101.408C520.24 100.441 520.741 99.334 521.075 98.0859C521.427 96.8203 521.603 95.4756 521.603 94.0518V93.4453C521.603 92.0391 521.427 90.7119 521.075 89.4639C520.741 88.1982 520.231 87.082 519.546 86.1152C518.878 85.1309 518.034 84.3574 517.015 83.7949C516.013 83.2324 514.835 82.9512 513.481 82.9512C512.146 82.9512 510.968 83.2324 509.948 83.7949C508.946 84.3574 508.103 85.1309 507.417 86.1152C506.749 87.082 506.248 88.1982 505.914 89.4639C505.58 90.7119 505.413 92.0391 505.413 93.4453ZM551.107 79.4707H555.537V107.394C555.537 109.907 555.027 112.052 554.008 113.827C552.988 115.603 551.564 116.947 549.736 117.861C547.926 118.793 545.834 119.259 543.461 119.259C542.477 119.259 541.316 119.101 539.98 118.784C538.662 118.485 537.361 117.967 536.078 117.229C534.812 116.508 533.749 115.532 532.888 114.302L535.445 111.401C536.641 112.843 537.889 113.845 539.189 114.407C540.508 114.97 541.809 115.251 543.092 115.251C544.639 115.251 545.975 114.961 547.1 114.381C548.225 113.801 549.095 112.939 549.71 111.797C550.343 110.672 550.659 109.283 550.659 107.631V85.7461L551.107 79.4707ZM531.464 94.0518V93.498C531.464 91.3184 531.719 89.3408 532.229 87.5654C532.756 85.7725 533.503 84.2344 534.47 82.9512C535.454 81.668 536.641 80.6836 538.029 79.998C539.418 79.2949 540.982 78.9434 542.723 78.9434C544.516 78.9434 546.08 79.2598 547.416 79.8926C548.77 80.5078 549.912 81.4131 550.844 82.6084C551.793 83.7861 552.54 85.21 553.085 86.8799C553.63 88.5498 554.008 90.4395 554.219 92.5488V94.9746C554.025 97.0664 553.647 98.9473 553.085 100.617C552.54 102.287 551.793 103.711 550.844 104.889C549.912 106.066 548.77 106.972 547.416 107.604C546.062 108.22 544.48 108.527 542.67 108.527C540.965 108.527 539.418 108.167 538.029 107.446C536.658 106.726 535.48 105.715 534.496 104.414C533.512 103.113 532.756 101.584 532.229 99.8262C531.719 98.0508 531.464 96.126 531.464 94.0518ZM536.342 93.498V94.0518C536.342 95.4756 536.482 96.8115 536.764 98.0596C537.062 99.3076 537.511 100.406 538.108 101.355C538.724 102.305 539.506 103.052 540.455 103.597C541.404 104.124 542.538 104.388 543.856 104.388C545.474 104.388 546.81 104.045 547.864 103.359C548.919 102.674 549.754 101.769 550.369 100.644C551.002 99.5186 551.494 98.2969 551.846 96.9785V90.624C551.652 89.6572 551.354 88.7256 550.949 87.8291C550.562 86.915 550.053 86.1064 549.42 85.4033C548.805 84.6826 548.04 84.1113 547.126 83.6895C546.212 83.2676 545.14 83.0566 543.909 83.0566C542.573 83.0566 541.422 83.3379 540.455 83.9004C539.506 84.4453 538.724 85.2012 538.108 86.168C537.511 87.1172 537.062 88.2246 536.764 89.4902C536.482 90.7383 536.342 92.0742 536.342 93.498ZM568.246 79.4707V108H563.342V79.4707H568.246ZM562.973 71.9033C562.973 71.1123 563.21 70.4443 563.685 69.8994C564.177 69.3545 564.897 69.082 565.847 69.082C566.778 69.082 567.49 69.3545 567.982 69.8994C568.492 70.4443 568.747 71.1123 568.747 71.9033C568.747 72.6592 568.492 73.3096 567.982 73.8545C567.49 74.3818 566.778 74.6455 565.847 74.6455C564.897 74.6455 564.177 74.3818 563.685 73.8545C563.21 73.3096 562.973 72.6592 562.973 71.9033ZM580.955 85.5615V108H576.077V79.4707H580.691L580.955 85.5615ZM579.795 92.6543L577.765 92.5752C577.782 90.624 578.072 88.8223 578.635 87.1699C579.197 85.5 579.988 84.0498 581.008 82.8193C582.027 81.5889 583.24 80.6396 584.646 79.9717C586.07 79.2861 587.644 78.9434 589.366 78.9434C590.772 78.9434 592.038 79.1367 593.163 79.5234C594.288 79.8926 595.246 80.4902 596.037 81.3164C596.846 82.1426 597.461 83.2148 597.883 84.5332C598.305 85.834 598.516 87.4248 598.516 89.3057V108H593.611V89.2529C593.611 87.7588 593.392 86.5635 592.952 85.667C592.513 84.7529 591.871 84.0938 591.027 83.6895C590.184 83.2676 589.146 83.0566 587.916 83.0566C586.703 83.0566 585.596 83.3115 584.594 83.8213C583.609 84.3311 582.757 85.0342 582.036 85.9307C581.333 86.8271 580.779 87.8555 580.375 89.0156C579.988 90.1582 579.795 91.3711 579.795 92.6543ZM626.544 102.938L633.874 79.4707H637.091L636.458 84.1377L628.996 108H625.858L626.544 102.938ZM621.613 79.4707L627.862 103.201L628.311 108H625.015L616.735 79.4707H621.613ZM644.104 103.017L650.063 79.4707H654.915L646.636 108H643.366L644.104 103.017ZM637.803 79.4707L644.975 102.542L645.792 108H642.681L635.008 84.085L634.375 79.4707H637.803ZM665.225 79.4707V108H660.32V79.4707H665.225ZM659.951 71.9033C659.951 71.1123 660.188 70.4443 660.663 69.8994C661.155 69.3545 661.876 69.082 662.825 69.082C663.757 69.082 664.469 69.3545 664.961 69.8994C665.471 70.4443 665.726 71.1123 665.726 71.9033C665.726 72.6592 665.471 73.3096 664.961 73.8545C664.469 74.3818 663.757 74.6455 662.825 74.6455C661.876 74.6455 661.155 74.3818 660.663 73.8545C660.188 73.3096 659.951 72.6592 659.951 71.9033ZM685 79.4707V83.2148H669.575V79.4707H685ZM674.796 72.5361H679.674V100.934C679.674 101.9 679.823 102.63 680.122 103.122C680.421 103.614 680.808 103.939 681.282 104.098C681.757 104.256 682.267 104.335 682.812 104.335C683.216 104.335 683.638 104.3 684.077 104.229C684.534 104.142 684.877 104.071 685.105 104.019L685.132 108C684.745 108.123 684.235 108.237 683.603 108.343C682.987 108.466 682.24 108.527 681.361 108.527C680.166 108.527 679.067 108.29 678.065 107.815C677.063 107.341 676.264 106.55 675.666 105.442C675.086 104.317 674.796 102.806 674.796 100.907V72.5361ZM695.6 67.5V108H690.722V67.5H695.6ZM694.439 92.6543L692.409 92.5752C692.427 90.624 692.717 88.8223 693.279 87.1699C693.842 85.5 694.633 84.0498 695.652 82.8193C696.672 81.5889 697.885 80.6396 699.291 79.9717C700.715 79.2861 702.288 78.9434 704.011 78.9434C705.417 78.9434 706.683 79.1367 707.808 79.5234C708.933 79.8926 709.891 80.4902 710.682 81.3164C711.49 82.1426 712.105 83.2148 712.527 84.5332C712.949 85.834 713.16 87.4248 713.16 89.3057V108H708.256V89.2529C708.256 87.7588 708.036 86.5635 707.597 85.667C707.157 84.7529 706.516 84.0938 705.672 83.6895C704.828 83.2676 703.791 83.0566 702.561 83.0566C701.348 83.0566 700.24 83.3115 699.238 83.8213C698.254 84.3311 697.401 85.0342 696.681 85.9307C695.978 86.8271 695.424 87.8555 695.02 89.0156C694.633 90.1582 694.439 91.3711 694.439 92.6543ZM764.128 69.6094V108H759.013L739.686 78.3896V108H734.597V69.6094H739.686L759.092 99.2988V69.6094H764.128ZM789.229 103.122V88.4355C789.229 87.3105 789.001 86.335 788.544 85.5088C788.104 84.665 787.437 84.0146 786.54 83.5576C785.644 83.1006 784.536 82.8721 783.218 82.8721C781.987 82.8721 780.906 83.083 779.975 83.5049C779.061 83.9268 778.34 84.4805 777.812 85.166C777.303 85.8516 777.048 86.5898 777.048 87.3809H772.17C772.17 86.3613 772.434 85.3506 772.961 84.3486C773.488 83.3467 774.244 82.4414 775.229 81.6328C776.23 80.8066 777.426 80.1562 778.814 79.6816C780.221 79.1895 781.785 78.9434 783.508 78.9434C785.582 78.9434 787.41 79.2949 788.992 79.998C790.592 80.7012 791.84 81.7646 792.736 83.1885C793.65 84.5947 794.107 86.3613 794.107 88.4883V101.777C794.107 102.727 794.187 103.737 794.345 104.81C794.521 105.882 794.775 106.805 795.109 107.578V108H790.021C789.774 107.438 789.581 106.69 789.44 105.759C789.3 104.81 789.229 103.931 789.229 103.122ZM790.073 90.7031L790.126 94.1309H785.195C783.807 94.1309 782.567 94.2451 781.478 94.4736C780.388 94.6846 779.474 95.0098 778.735 95.4492C777.997 95.8887 777.435 96.4424 777.048 97.1104C776.661 97.7607 776.468 98.5254 776.468 99.4043C776.468 100.301 776.67 101.118 777.074 101.856C777.479 102.595 778.085 103.184 778.894 103.623C779.72 104.045 780.73 104.256 781.926 104.256C783.42 104.256 784.738 103.939 785.881 103.307C787.023 102.674 787.929 101.9 788.597 100.986C789.282 100.072 789.651 99.1846 789.704 98.3232L791.787 100.67C791.664 101.408 791.33 102.226 790.785 103.122C790.24 104.019 789.511 104.88 788.597 105.706C787.7 106.515 786.628 107.191 785.38 107.736C784.149 108.264 782.761 108.527 781.214 108.527C779.28 108.527 777.584 108.149 776.125 107.394C774.684 106.638 773.559 105.627 772.75 104.361C771.959 103.078 771.563 101.646 771.563 100.063C771.563 98.5342 771.862 97.1895 772.46 96.0293C773.058 94.8516 773.919 93.876 775.044 93.1025C776.169 92.3115 777.522 91.7139 779.104 91.3096C780.687 90.9053 782.453 90.7031 784.404 90.7031H790.073ZM810.033 103.597L817.838 79.4707H822.821L812.564 108H809.295L810.033 103.597ZM803.521 79.4707L811.562 103.729L812.116 108H808.847L798.511 79.4707H803.521ZM838.984 108.527C836.998 108.527 835.196 108.193 833.579 107.525C831.979 106.84 830.6 105.882 829.439 104.651C828.297 103.421 827.418 101.962 826.803 100.274C826.188 98.5869 825.88 96.7412 825.88 94.7373V93.6299C825.88 91.3096 826.223 89.2441 826.908 87.4336C827.594 85.6055 828.525 84.0586 829.703 82.793C830.881 81.5273 832.217 80.5693 833.711 79.9189C835.205 79.2686 836.752 78.9434 838.352 78.9434C840.391 78.9434 842.148 79.2949 843.625 79.998C845.119 80.7012 846.341 81.6855 847.29 82.9512C848.239 84.1992 848.942 85.6758 849.399 87.3809C849.856 89.0684 850.085 90.9141 850.085 92.918V95.1064H828.78V91.125H845.207V90.7559C845.137 89.4902 844.873 88.2598 844.416 87.0645C843.977 85.8691 843.273 84.8848 842.307 84.1113C841.34 83.3379 840.021 82.9512 838.352 82.9512C837.244 82.9512 836.225 83.1885 835.293 83.6631C834.361 84.1201 833.562 84.8057 832.894 85.7197C832.226 86.6338 831.707 87.75 831.338 89.0684C830.969 90.3867 830.784 91.9072 830.784 93.6299V94.7373C830.784 96.0908 830.969 97.3652 831.338 98.5605C831.725 99.7383 832.278 100.775 832.999 101.672C833.737 102.568 834.625 103.271 835.662 103.781C836.717 104.291 837.912 104.546 839.248 104.546C840.971 104.546 842.43 104.194 843.625 103.491C844.82 102.788 845.866 101.848 846.763 100.67L849.716 103.017C849.101 103.948 848.318 104.836 847.369 105.68C846.42 106.523 845.251 107.209 843.862 107.736C842.491 108.264 840.865 108.527 838.984 108.527ZM860.658 83.9531V108H855.78V79.4707H860.526L860.658 83.9531ZM869.57 79.3125L869.544 83.8477C869.14 83.7598 868.753 83.707 868.384 83.6895C868.032 83.6543 867.628 83.6367 867.171 83.6367C866.046 83.6367 865.053 83.8125 864.191 84.1641C863.33 84.5156 862.601 85.0078 862.003 85.6406C861.405 86.2734 860.931 87.0293 860.579 87.9082C860.245 88.7695 860.025 89.7188 859.92 90.7559L858.549 91.5469C858.549 89.8242 858.716 88.207 859.05 86.6953C859.401 85.1836 859.938 83.8477 860.658 82.6875C861.379 81.5098 862.293 80.5957 863.4 79.9453C864.525 79.2773 865.861 78.9434 867.408 78.9434C867.76 78.9434 868.164 78.9873 868.621 79.0752C869.078 79.1455 869.395 79.2246 869.57 79.3125Z" fill="black"/>
<path d="M101.243 92.8167L71.5867 50H47V130H72.7533V87.1867L102.413 130H127V50H101.243V92.8167Z" fill="#03C75A"/>
</svg>
