<svg width="174" height="174" viewBox="0 0 174 174" fill="none" xmlns="http://www.w3.org/2000/svg">
<rect width="174" height="174" fill="#F8F8F8"/>
<path d="M117 60.03L113.97 57L57 113.97L60.03 117L64.3157 112.714H108.429C109.565 112.713 110.654 112.261 111.457 111.457C112.261 110.654 112.713 109.565 112.714 108.429V64.3157L117 60.03ZM108.429 108.429H68.6014L85.3007 91.7293L90.3986 96.8271C91.2023 97.6306 92.2922 98.0819 93.4286 98.0819C94.565 98.0819 95.6549 97.6306 96.4586 96.8271L99.8571 93.4286L108.429 101.994V108.429ZM108.429 95.9314L102.887 90.39C102.083 89.5866 100.994 89.1352 99.8571 89.1352C98.7207 89.1352 97.6308 89.5866 96.8271 90.39L93.4286 93.7886L88.335 88.695L108.429 68.6014V95.9314ZM65.5714 99.8571V93.4286L76.2857 82.7207L79.2279 85.665L82.2621 82.6307L79.3157 79.6843C78.512 78.8808 77.4221 78.4295 76.2857 78.4295C75.1493 78.4295 74.0594 78.8808 73.2557 79.6843L65.5714 87.3686V65.5714H99.8571V61.2857H65.5714C64.4348 61.2857 63.3447 61.7372 62.541 62.541C61.7372 63.3447 61.2857 64.4348 61.2857 65.5714V99.8571H65.5714Z" fill="black"/>
</svg>
