<svg xmlns="http://www.w3.org/2000/svg" width="23" height="19" viewBox="0 0 23 19" fill="none">
<path d="M11.25 2.96581L10.6849 3.48581C10.7581 3.55839 10.8459 3.61613 10.943 3.65557C11.0401 3.695 11.1445 3.71533 11.25 3.71533C11.3555 3.71533 11.4599 3.695 11.557 3.65557C11.6541 3.61613 11.7419 3.55839 11.8151 3.48581L11.25 2.96581ZM8.55628 15.7878C6.96977 14.5928 5.2357 13.4258 3.85954 11.9458C2.51163 10.4938 1.56977 8.80081 1.56977 6.60281H0C0 9.26881 1.16163 11.3028 2.6864 12.9418C4.18291 14.5518 6.09174 15.8418 7.58407 16.9658L8.55628 15.7878ZM1.56977 6.60281C1.56977 4.45281 2.84128 2.64881 4.57744 1.88981C6.26442 1.15281 8.53116 1.34781 10.6849 3.48581L11.8151 2.44681C9.26163 -0.0901935 6.29372 -0.509194 3.92442 0.525806C1.60744 1.53881 0 3.89081 0 6.60281H1.56977ZM7.58407 16.9658C8.12093 17.3698 8.69651 17.7998 9.27942 18.1258C9.86233 18.4508 10.5279 18.7158 11.25 18.7158V17.2158C10.9256 17.2158 10.5447 17.0958 10.0716 16.8308C9.59756 16.5668 9.10674 16.2028 8.55628 15.7878L7.58407 16.9658ZM14.9159 16.9658C16.4083 15.8408 18.3171 14.5528 19.8136 12.9418C21.3384 11.3018 22.5 9.26881 22.5 6.60281H20.9302C20.9302 8.80081 19.9884 10.4938 18.6405 11.9458C17.2643 13.4258 15.5302 14.5928 13.9437 15.7878L14.9159 16.9658ZM22.5 6.60281C22.5 3.89081 20.8936 1.53881 18.5756 0.525806C16.2063 -0.509194 13.2405 -0.0901935 10.6849 2.44581L11.8151 3.48581C13.9688 1.34881 16.2356 1.15281 17.9226 1.88981C19.6587 2.64881 20.9302 4.45181 20.9302 6.60281H22.5ZM13.9437 15.7878C13.3933 16.2028 12.9024 16.5668 12.4284 16.8308C11.9553 17.0948 11.5744 17.2158 11.25 17.2158V18.7158C11.9721 18.7158 12.6377 18.4508 13.2206 18.1258C13.8045 17.7998 14.3791 17.3698 14.9159 16.9658L13.9437 15.7878Z" fill="black"/>
</svg>